<svg width="500" height="500" viewBox="0 0 200 200" xmlns="http://www.w3.org/2000/svg">
  <defs>
    <linearGradient id="appleGrad" x1="0%" y1="0%" x2="100%" y2="100%">
      <stop offset="0%" style="stop-color:#5ac8fa;stop-opacity:1" />
      <stop offset="100%" style="stop-color:#007aff;stop-opacity:1" />
    </linearGradient>
  </defs>
  <rect width="200" height="200" fill="url(#appleGrad)" rx="12"/>
  <text x="60" y="100" font-family="Arial, sans-serif" font-size="14" font-weight="bold" fill="white" text-anchor="middle">آی تونز اپل</text>
  <!-- Apple Logo -->
  <g transform="translate(140, 100)">
    <path d="M -12 -8 Q -12 -12 -8 -12 Q -4 -12 -4 -8 Q -4 -4 -8 -4 Q -12 -4 -12 -8 M 8 -8 Q 8 -12 12 -12 Q 16 -12 16 -8 Q 16 -4 12 -4 Q 8 -4 8 -8 M -8 4 Q -4 4 -4 8 Q -4 12 -8 12 Q -12 12 -12 8 Q -12 4 -8 4 M 8 4 Q 12 4 12 8 Q 12 12 8 12 Q 4 12 4 8 Q 4 4 8 4" fill="white" opacity="0.95"/>
    <path d="M -6 -6 L 6 6 M 6 -6 L -6 6" stroke="white" stroke-width="2" opacity="0.3"/>
  </g>
</svg>
